<?xml version="1.0" standalone="no"?>
<!DOCTYPE svg PUBLIC "-//W3C//DTD SVG 20010904//EN"
 "http://www.w3.org/TR/2001/REC-SVG-20010904/DTD/svg10.dtd">
<svg version="1.0" xmlns="http://www.w3.org/2000/svg"
 width="700.000000pt" height="700.000000pt" viewBox="0 0 700.000000 700.000000"
 preserveAspectRatio="xMidYMid meet">
<metadata>
Created by potrace 1.11, written by Peter Selinger 2001-2013
</metadata>
<g transform="translate(0.000000,700.000000) scale(0.100000,-0.100000)"
fill="#000000" stroke="none">
<path d="M6195 6972 c-16 -16 -66 -68 -110 -117 -97 -107 -104 -115 -230 -250
-55 -59 -107 -116 -115 -125 -37 -43 -188 -206 -218 -236 l-33 -33 -62 44
c-422 294 -977 503 -1512 569 -223 27 -607 28 -795 2 -14 -2 -48 -7 -75 -10
-88 -12 -119 -17 -290 -50 -76 -15 -366 -100 -430 -126 -11 -4 -63 -25 -115
-46 -518 -208 -1006 -570 -1363 -1009 l-98 -120 -204 -5 c-200 -5 -204 -5
-230 -30 -53 -49 -67 -105 -42 -162 7 -15 56 -72 110 -127 l98 -99 -61 -129
c-34 -70 -66 -137 -70 -148 -4 -11 -15 -36 -23 -55 -82 -197 -169 -503 -201
-710 -3 -19 -8 -44 -10 -55 -2 -12 -7 -48 -11 -80 -4 -33 -9 -71 -11 -85 -7
-43 -16 -251 -17 -355 0 -194 19 -409 52 -595 5 -30 12 -71 16 -90 12 -69 76
-307 111 -410 244 -720 716 -1334 1349 -1755 305 -202 614 -346 956 -443 112
-32 257 -66 329 -77 25 -4 54 -9 65 -11 11 -2 36 -6 55 -9 19 -3 51 -7 70 -10
98 -13 236 -20 435 -20 218 0 375 10 470 30 11 2 43 7 70 10 76 10 266 53 395
90 371 107 780 308 1080 533 185 138 412 347 558 514 220 253 430 591 567 913
93 219 186 536 219 748 3 20 8 52 11 71 54 331 51 717 -6 1066 -52 319 -149
627 -290 919 l-69 143 97 98 c53 54 102 109 109 122 31 56 6 143 -52 179 -32
20 -49 21 -229 21 l-194 0 -43 57 c-77 103 -150 185 -304 338 l-152 152 36 32
c21 18 88 80 151 138 139 128 134 124 202 186 380 349 369 338 369 372 0 24
-19 49 -97 129 -144 147 -164 157 -218 106z"/>
</g>
</svg>
