<svg id="Layer_1" enable-background="new 0 0 24 24" height="512" viewBox="0 0 24 24" width="512" xmlns="http://www.w3.org/2000/svg" fill="white"><g><path d="m13.5 16c-.276 0-.5-.224-.5-.5v-13.5c0-.552-.448-1-1-1s-1 .448-1 1v13.5c0 .276-.224.5-.5.5s-.5-.224-.5-.5v-13.5c0-1.103.897-2 2-2s2 .897 2 2v13.5c0 .276-.224.5-.5.5z"/></g><g><path d="m12 24c-1.103 0-2-.897-2-2v-2.5c0-.276.224-.5.5-.5s.5.224.5.5v2.5c0 .552.448 1 1 1s1-.448 1-1v-2.5c0-.276.224-.5.5-.5s.5.224.5.5v2.5c0 1.103-.897 2-2 2z"/></g><g><path d="m14.5 20h-5c-.827 0-1.5-.673-1.5-1.5v-2c0-.827.673-1.5 1.5-1.5h5c.827 0 1.5.673 1.5 1.5v2c0 .827-.673 1.5-1.5 1.5zm-5-4c-.275 0-.5.225-.5.5v2c0 .275.225.5.5.5h5c.275 0 .5-.225.5-.5v-2c0-.275-.225-.5-.5-.5z"/></g><g><path d="m5.5 6c-.276 0-.5-.224-.5-.5v-3.5c0-.552-.448-1-1-1s-1 .448-1 1v3.5c0 .276-.224.5-.5.5s-.5-.224-.5-.5v-3.5c0-1.103.897-2 2-2s2 .897 2 2v3.5c0 .276-.224.5-.5.5z"/></g><g><path d="m4 24c-1.103 0-2-.897-2-2v-12.5c0-.276.224-.5.5-.5s.5.224.5.5v12.5c0 .552.448 1 1 1s1-.448 1-1v-12.5c0-.276.224-.5.5-.5s.5.224.5.5v12.5c0 1.103-.897 2-2 2z"/></g><g><path d="m6.5 10h-5c-.827 0-1.5-.673-1.5-1.5v-2c0-.827.673-1.5 1.5-1.5h5c.827 0 1.5.673 1.5 1.5v2c0 .827-.673 1.5-1.5 1.5zm-5-4c-.275 0-.5.225-.5.5v2c0 .275.225.5.5.5h5c.275 0 .5-.225.5-.5v-2c0-.275-.225-.5-.5-.5z"/></g><g><path d="m21.5 6c-.276 0-.5-.224-.5-.5v-3.5c0-.552-.448-1-1-1s-1 .448-1 1v3.5c0 .276-.224.5-.5.5s-.5-.224-.5-.5v-3.5c0-1.103.897-2 2-2s2 .897 2 2v3.5c0 .276-.224.5-.5.5z"/></g><g><path d="m20 24c-1.103 0-2-.897-2-2v-12.5c0-.276.224-.5.5-.5s.5.224.5.5v12.5c0 .552.448 1 1 1s1-.448 1-1v-12.5c0-.276.224-.5.5-.5s.5.224.5.5v12.5c0 1.103-.897 2-2 2z"/></g><g><path d="m22.5 10h-5c-.827 0-1.5-.673-1.5-1.5v-2c0-.827.673-1.5 1.5-1.5h5c.827 0 1.5.673 1.5 1.5v2c0 .827-.673 1.5-1.5 1.5zm-5-4c-.275 0-.5.225-.5.5v2c0 .275.225.5.5.5h5c.275 0 .5-.225.5-.5v-2c0-.275-.225-.5-.5-.5z"/></g></svg>